<?xml version="1.0" encoding="UTF-8" standalone="no"?>
<!DOCTYPE svg PUBLIC "-//W3C//DTD SVG 1.1//EN" "http://www.w3.org/Graphics/SVG/1.1/DTD/svg11.dtd">
<svg width="100%" height="100%" viewBox="0 0 245 227" version="1.1" xmlns="http://www.w3.org/2000/svg" xmlns:xlink="http://www.w3.org/1999/xlink" xml:space="preserve" xmlns:serif="http://www.serif.com/" style="fill-rule:evenodd;clip-rule:evenodd;stroke-linejoin:round;stroke-miterlimit:2;">
    <g id="ArtBoard1" transform="matrix(0.966481,0,0,0.947437,-370.133,-282.434)">
        <rect x="382.97" y="298.103" width="253.223" height="238.624" style="fill:none;"/>
        <g id="_-131313ff" serif:id="#131313ff" transform="matrix(1.03468,0,0,1.05548,-21.0609,-29.6684)">
            <path d="M397.94,320.99C412.93,315.23 428.88,311.44 445.03,311.9C469.7,311.73 494.1,320.23 513.79,334.98C522.81,328 532.75,322.12 543.61,318.48C564.77,310.72 588.28,310.35 609.99,316.07C616.49,317.85 623.15,319.54 629.07,322.87C631.02,323.79 631.4,326.05 631.72,327.96C633.64,345.99 632.7,364.34 628.82,382.05C625.73,396.69 619.03,410.47 609.73,422.17C615.68,430.28 621.08,438.91 624.53,448.41C629.46,462.05 631.78,476.54 632.32,491.01C632.88,501.03 632.66,511.15 631.09,521.08C630.97,524.26 627.65,525.39 625.18,526.39C605.94,533.02 585.21,535.94 564.98,532.99C546.06,530.93 528.3,522.68 513.32,511.15C505.22,517.08 496.69,522.56 487.36,526.36C459.2,537.84 426.89,537.13 398.58,526.55C396.31,525.51 393.4,524.44 393.36,521.47C390.53,500.66 392.09,479.31 397.06,458.93C400.11,446.06 406.58,434.19 415,424.04C412.94,420.19 410.04,416.83 407.91,413.01C396.33,393.48 392.39,370.43 391.91,348.01C391.78,340.33 392.01,332.61 393.4,325.04C393.77,322.78 396.1,321.84 397.94,320.99M419.77,343.16C419.05,363.43 423,384.26 433.88,401.62C452.01,384.42 471.68,368.97 491.24,353.46C484.89,348.73 477.82,344.92 470.16,342.82C453.77,338.37 436.12,338.61 419.77,343.16M545.01,348.16C527.39,356.88 513.24,370.78 498.32,383.26C483.12,395.92 467.64,408.24 452.91,421.45C462.02,428.09 472.46,433.43 483.82,434.6C493.2,435.46 502.63,434.75 512.02,434.52C517.07,434.49 522.27,434.26 527.12,435.96C523.93,438.84 520.25,441.1 516.91,443.79C509.55,449.63 502.58,455.94 495.85,462.49C491.56,462.18 487.27,462.12 482.98,461.92C465.43,460.81 448.45,453.72 434.74,442.82C423.08,460.62 419.84,482.52 420.11,503.42C442.85,509.92 468.62,507.71 488.76,494.79C502.29,485.94 513.83,474.52 525.86,463.8C540.96,449.98 555.81,435.88 570.53,421.64C564.23,417.58 557.44,413.78 549.89,412.81C538.95,411.13 527.94,413.31 516.96,413.1C510.71,412.95 504.2,413.97 498.16,411.95C510.14,404.6 520.43,394.92 530.5,385.21C540.68,384.89 551.02,384.46 560.98,387.05C571.74,389.4 581.48,394.89 590.19,401.49C602.05,384.72 605.3,363.51 604.75,343.4C585.22,336.83 563.27,338.68 545.01,348.16M575.89,454.95C562.45,467.78 549.12,480.74 535.16,493.01C555.17,507.17 581.65,508.83 604.88,503.09C604.71,481.7 601.88,459.28 589.98,440.97C585.47,445.81 580.69,450.39 575.89,454.95Z" style="fill:rgb(19,19,19);fill-rule:nonzero;"/>
        </g>
    </g>
</svg>
