<?xml version="1.0" encoding="UTF-8" ?>
<!DOCTYPE svg PUBLIC "-//W3C//DTD SVG 1.1//EN" "http://www.w3.org/Graphics/SVG/1.1/DTD/svg11.dtd">
<svg width="308pt" height="306pt" viewBox="0 0 308 306" version="1.1" xmlns="http://www.w3.org/2000/svg">
<g id="#fefffeff">
</g>
<g id="#000000ff">
<path fill="#000000" opacity="1.00" d=" M 138.75 6.47 C 148.75 4.70 158.97 5.47 169.07 5.49 C 184.37 7.16 199.66 10.26 213.89 16.30 C 234.37 24.63 253.04 37.80 266.96 55.05 C 272.35 61.75 277.74 68.48 282.29 75.79 C 293.28 93.74 299.76 114.24 302.44 135.04 C 302.77 141.17 302.81 147.31 302.68 153.45 C 290.97 153.42 279.27 153.32 267.57 153.51 C 265.60 147.19 267.64 140.35 266.00 133.93 C 264.32 119.65 258.51 106.19 251.23 93.92 C 243.29 81.47 233.70 69.82 221.43 61.42 C 193.97 42.17 157.59 36.09 125.44 45.74 C 105.87 51.20 87.77 62.02 73.91 76.91 C 54.81 96.92 44.11 124.89 45.66 152.56 C 44.20 153.17 42.65 153.49 41.06 153.39 C 30.52 153.41 19.98 153.37 9.43 153.41 C 8.61 129.77 15.03 106.29 25.35 85.16 C 29.69 76.30 35.24 68.08 41.50 60.47 C 64.75 30.25 100.86 10.39 138.75 6.47 Z" />
<path fill="#000000" opacity="1.00" d=" M 146.29 107.92 C 154.85 106.94 163.98 106.32 172.16 109.60 C 183.14 113.63 192.22 122.30 197.37 132.73 C 203.97 146.14 203.22 162.85 195.49 175.65 C 190.11 185.21 181.12 192.69 170.70 196.14 C 159.75 200.11 147.23 199.14 136.81 194.04 C 123.78 187.85 114.43 174.94 111.71 160.89 C 111.04 155.27 111.18 149.57 111.66 143.94 C 115.37 126.88 128.98 111.72 146.29 107.92 Z" />
<path fill="#000000" opacity="1.00" d=" M 13.17 185.67 C 25.25 185.80 37.34 185.72 49.43 185.49 C 51.75 191.04 53.93 196.68 56.73 202.02 C 65.32 218.66 78.28 232.83 93.49 243.65 C 108.74 254.09 126.58 260.72 144.95 262.59 C 152.65 262.85 160.35 262.86 168.04 262.62 C 203.33 259.26 236.37 237.69 253.36 206.53 C 257.28 199.84 259.68 192.45 262.46 185.26 C 274.57 185.71 286.69 185.61 298.81 185.65 C 296.51 198.30 291.32 210.30 285.42 221.67 C 275.12 240.67 260.85 257.54 243.51 270.49 C 222.64 286.45 197.10 295.88 171.04 298.48 C 160.50 298.85 149.93 298.90 139.39 298.36 C 125.52 296.35 111.73 293.14 98.85 287.52 C 82.56 280.46 67.60 270.45 54.69 258.28 C 39.56 243.17 26.91 225.35 19.13 205.34 C 16.75 198.92 14.08 192.48 13.17 185.67 Z" />
</g>
</svg>
